<svg width="2901" height="1269" xmlns="http://www.w3.org/2000/svg" xmlns:xlink="http://www.w3.org/1999/xlink" xml:space="preserve" overflow="hidden"><defs><clipPath id="clip0"><rect x="1787" y="601" width="125" height="289"/></clipPath><clipPath id="clip1"><rect x="1787" y="601" width="125" height="289"/></clipPath><clipPath id="clip2"><rect x="1787" y="601" width="125" height="289"/></clipPath><clipPath id="clip3"><rect x="2074" y="1308" width="73" height="164"/></clipPath></defs><g transform="translate(-4 -348)"><g><path d="M1270.75 1065.47 580.406 1061.91 580.429 1057.33 1270.77 1060.88ZM584.953 1068.81 557.5 1059.5 585.047 1050.48Z" fill="#595959" fill-rule="nonzero" fill-opacity="1"/><path d="M22.9262-2.20349 726.222 0.502018 726.205 5.08532 22.9086 2.37981ZM27.4645 9.27239 0 0 27.5351-9.06081Z" fill="#595959" fill-rule="nonzero" fill-opacity="1" transform="matrix(-1 0 0 1 1283.71 1030.5)"/><path d="M132.5 704.074C132.5 701.83 132.5 699.706 132.5 697.581 132.5 695.878 133.355 695.002 135.041 695 139.352 695 143.665 695 147.976 695.007 149.635 695.009 150.488 695.873 150.49 697.532 150.492 699.68 150.49 701.828 150.49 704.076 150.76 704.076 150.985 704.076 151.208 704.076 155.543 704.08 159.879 704.037 164.213 704.099 169.076 704.167 172.978 708.159 172.987 713.056 173.006 723.689 173.004 734.32 172.983 744.952 172.972 749.949 169.013 753.971 164.049 753.982 150.621 754.011 137.194 753.998 123.766 753.988 121.708 753.988 119.63 754.064 117.592 753.833 113.383 753.346 110.011 749.403 110.007 745.137 109.999 734.434 109.997 723.731 110.007 713.028 110.011 708.223 113.895 704.18 118.661 704.101 123.018 704.029 127.378 704.078 131.737 704.074 131.965 704.074 132.194 704.074 132.5 704.074ZM148.24 708.616C148.24 709.427 148.24 710.133 148.24 710.838 148.227 714.619 145.222 717.692 141.537 717.687 137.768 717.685 134.776 714.67 134.754 710.846 134.75 710.122 134.754 709.398 134.754 708.641 134.514 708.628 134.356 708.614 134.196 708.614 129.158 708.614 124.122 708.614 119.084 708.616 118.804 708.616 118.52 708.628 118.246 708.682 115.941 709.113 114.493 710.938 114.491 713.443 114.487 723.812 114.491 734.184 114.489 744.553 114.489 747.504 116.392 749.448 119.316 749.448 134.099 749.452 148.884 749.45 163.667 749.448 166.586 749.448 168.503 747.504 168.505 744.559 168.505 740.283 168.505 736.008 168.505 731.732 168.505 725.59 168.514 719.448 168.505 713.307 168.501 710.547 166.531 708.609 163.783 708.614 161.16 708.618 158.535 708.614 155.911 708.614 153.385 708.614 150.859 708.614 148.244 708.614ZM137.003 699.57C137.003 703.498 136.929 707.35 137.034 711.195 137.087 713.1 138.193 714.473 139.993 715.127 142.97 716.211 145.983 714.006 146 710.757 146.017 707.237 146.004 703.717 146.002 700.196 146.002 699.993 145.977 699.789 145.962 699.57L137.003 699.57Z" fill="#595959" fill-rule="evenodd" fill-opacity="1"/><path d="M151.504 742.996C147.976 742.996 144.449 742.996 140.921 742.996 140.661 742.996 140.399 743.01 140.139 742.985 139.46 742.921 139.008 742.329 139 741.514 138.994 740.646 139.443 740.024 140.173 740.015 142.066 739.99 143.962 740.004 145.855 740.004 151.442 740.004 157.028 740.004 162.616 740.012 163.517 740.012 164.01 740.557 164 741.514 163.989 742.463 163.493 742.988 162.582 742.988 158.889 742.99 155.195 742.988 151.502 742.988L151.502 742.993Z" fill="#595959" fill-rule="evenodd" fill-opacity="1"/><path d="M151.43 726.996C147.739 726.996 144.049 726.991 140.359 727 139.714 727 139.233 726.8 139.052 726.249 138.909 725.814 139.058 725.394 139.526 725.176 139.801 725.047 140.156 725.011 140.476 725.009 146.839 725 153.205 725.002 159.568 725.002 160.586 725.002 161.603 724.996 162.62 725.004 163.533 725.011 164.017 725.372 164 726.01 163.983 726.641 163.487 726.996 162.576 726.996 158.862 727 155.146 726.996 151.432 726.996L151.432 726.993Z" fill="#595959" fill-rule="evenodd" fill-opacity="1"/><path d="M149.04 729.007C151.957 729.007 154.872 729.003 157.79 729.01 158.529 729.012 158.981 729.384 159 729.951 159.02 730.554 158.56 730.959 157.815 730.996 157.746 731 157.675 731 157.607 731 151.865 731 146.126 731 140.385 730.995 140.158 730.995 139.915 730.98 139.708 730.909 139.198 730.732 138.942 730.373 139.011 729.882 139.084 729.367 139.427 729.039 140.014 729.018 140.893 728.988 141.774 729.005 142.653 729.005 144.783 729.005 146.911 729.005 149.042 729.005Z" fill="#595959" fill-rule="evenodd" fill-opacity="1"/><path d="M154.998 736.002C157.529 736.002 160.062 735.998 162.593 736.002 163.521 736.004 163.996 736.343 164 736.975 164.006 737.635 163.506 737.998 162.56 738 157.495 738 152.433 738 147.369 737.996 146.481 737.996 145.99 737.62 146 736.979 146.009 736.357 146.471 736.006 147.333 736.004 149.887 735.996 152.444 736.002 154.998 736.002Z" fill="#595959" fill-rule="evenodd" fill-opacity="1"/><path d="M141.486 736.008C141.93 736.008 142.373 735.988 142.814 736.012 143.516 736.051 143.983 736.441 144 736.965 144.014 737.48 143.547 737.947 142.875 737.972 141.941 738.01 140.998 738.012 140.063 737.963 139.402 737.93 138.946 737.439 139.005 736.919 139.068 736.372 139.458 736.051 140.157 736.014 140.599 735.989 141.042 736.01 141.486 736.01 141.486 736.01 141.486 736.01 141.486 736.008Z" fill="#595959" fill-rule="evenodd" fill-opacity="1"/><path d="M144 711.023C143.988 712.117 142.873 713.002 141.505 713 140.096 712.998 138.997 712.104 139 710.963 139 709.872 140.122 708.993 141.498 709 142.934 709.008 144.012 709.879 144 711.023Z" fill="#595959" fill-rule="evenodd" fill-opacity="1"/><path d="M134.926 741.685C134.557 739.516 133.578 737.795 132.011 736.508 132.03 736.506 132.047 736.503 132.066 736.501 131.446 735.969 130.86 735.617 130.198 735.333 130.088 735.6 129.977 735.863 129.867 736.127 129.431 737.146 128.997 738.162 128.527 739.261 128.229 738.545 127.974 737.974 127.759 737.388 127.709 737.25 127.766 737.051 127.814 736.895 127.945 736.473 128.102 736.062 128.241 735.643 128.287 735.504 128.31 735.355 128.352 735.184 127.895 735.05 127.451 734.994 127.002 735 126.554 734.994 126.109 735.05 125.652 735.184 125.692 735.357 125.717 735.504 125.763 735.643 125.903 736.06 126.059 736.473 126.191 736.895 126.239 737.053 126.297 737.25 126.245 737.388 126.03 737.974 125.775 738.545 125.477 739.261 125.008 738.16 124.574 737.146 124.138 736.127 124.027 735.863 123.917 735.6 123.806 735.333 123.145 735.617 122.559 735.971 121.939 736.501 121.957 736.503 121.976 736.506 121.993 736.508 120.428 737.795 119.448 739.516 119.079 741.685 118.878 742.859 119.001 743 120.153 743 121.553 743 122.953 743 124.353 743L124.353 743C124.605 743 124.824 743 125.041 743 125.694 743 126.347 743 127 743 127.653 743 128.306 743 128.959 743L129.648 743C131.047 743 132.447 743 133.847 743 134.999 743 135.122 742.857 134.922 741.685Z" fill="#595959" fill-rule="evenodd" fill-opacity="1"/><path d="M131.977 727.376C132.484 727.57 132.851 727.893 132.943 728.422 133.06 729.082 133.025 729.739 132.574 730.283 132.4 730.494 132.113 730.692 131.851 730.737 131.514 730.794 131.386 730.966 131.256 731.22 130.946 731.824 130.539 732.36 130.023 732.818 128.231 734.407 125.714 734.393 123.947 732.782 123.453 732.332 123.053 731.812 122.759 731.218 122.633 730.962 122.512 730.765 122.158 730.747 121.782 730.729 121.514 730.471 121.332 730.161 121.013 729.621 120.929 729.043 121.057 728.435 121.168 727.911 121.51 727.58 121.996 727.384 122.034 726.968 122.065 726.572 122.109 726.179 122.126 726.037 122.158 725.893 122.214 725.763 122.302 725.568 122.497 725.497 122.68 725.57 122.809 725.623 122.919 725.769 122.988 725.899 123.032 725.982 122.983 726.11 122.981 726.219 122.975 726.795 122.969 727.374 122.967 727.95 122.967 728.057 122.977 728.167 122.985 728.274 123.007 728.495 122.931 728.67 122.711 728.757 122.485 728.848 122.313 728.757 122.183 728.574 122.141 728.516 122.12 728.445 122.07 728.329 121.782 728.984 121.835 729.354 122.244 729.879 122.311 729.838 122.38 729.792 122.455 729.755 122.837 729.573 123.027 729.644 123.197 730.025 123.344 730.356 123.472 730.698 123.648 731.015 124.042 731.731 124.593 732.319 125.335 732.711 126.54 733.348 127.735 733.293 128.889 732.585 129.552 732.179 130.042 731.615 130.403 730.946 130.549 730.674 130.667 730.388 130.778 730.102 131.027 729.461 131.21 729.4 131.782 729.788 132.142 729.408 132.195 729.114 132.008 728.532 131.975 728.534 131.929 728.524 131.908 728.54 131.396 728.948 131.132 728.867 131.017 728.232 130.807 727.077 130.168 726.195 129.193 725.542 127.429 724.359 125.538 724.197 123.549 724.947 123.411 725 123.279 725.079 123.134 725.107 122.772 725.177 122.52 724.888 122.644 724.546 122.692 724.412 122.768 724.282 122.849 724.162 123.929 722.584 125.492 721.908 127.397 722.01 129.185 722.103 130.485 722.982 131.281 724.544 131.667 725.3 131.859 726.104 131.939 726.939 131.954 727.081 131.962 727.225 131.975 727.378Z" fill="#595959" fill-rule="evenodd" fill-opacity="1"/><path d="M126 728.497C126.004 728.783 125.797 728.997 125.506 729 125.209 729.005 125.002 728.805 125 728.512 125 728.226 125.209 728.005 125.488 728 125.764 727.995 125.994 728.221 125.998 728.497Z" fill="#595959" fill-rule="evenodd" fill-opacity="1"/><path d="M130 728.503C130.002 728.793 129.796 729 129.504 729 129.214 729 128.998 728.79 129 728.506 129 728.229 129.225 728.002 129.5 728 129.775 727.998 129.998 728.221 130 728.503Z" fill="#595959" fill-rule="evenodd" fill-opacity="1"/><path d="M214.933 570.201C214.681 567.978 213.572 566.252 211.481 565.464 210.424 565.066 209.193 565.024 208.039 565.024 186.367 565.001 164.693 565.008 143.021 565.008 142.338 565.008 141.652 564.974 140.975 565.05 138.134 565.361 136.196 567.423 136.027 570.325 135.976 571.21 136.013 572.099 136.013 572.986L136.013 653.703 136.013 688.595 150.62 688.595C150.982 688.589 151.346 688.593 151.71 688.595L154.569 688.595C161.565 688.595 168.556 688.595 175.553 688.595 183.45 688.593 191.342 688.583 199.239 688.608 200.2 688.61 201.207 688.65 202.112 688.936 203.814 689.476 204.774 691.042 204.704 692.792 204.638 694.419 203.669 695.823 202.048 696.292 201.032 696.584 199.937 696.713 198.879 696.713 184.825 696.734 170.769 696.729 156.715 696.719 156.75 697.047 156.809 697.366 156.809 697.707L156.809 697.875C159.333 697.869 161.857 697.873 164.378 697.907 169.715 697.978 174.413 700.791 177.118 704.958 184.414 704.958 191.708 704.956 199 704.958 199.778 704.958 200.568 704.916 201.334 705.017 203.251 705.272 204.548 706.664 204.695 708.522 204.853 710.473 203.652 712.235 201.718 712.683 200.881 712.876 199.978 712.838 199.105 712.838 192.582 712.84 186.058 712.838 179.535 712.838 179.535 712.914 179.548 712.988 179.548 713.063 179.554 716.307 179.544 719.549 179.548 722.793 186.041 722.793 192.535 722.791 199.026 722.798 199.901 722.798 200.802 722.754 201.643 722.938 203.599 723.372 204.819 725.098 204.691 727.049 204.572 728.88 203.288 730.328 201.409 730.661 200.743 730.781 200.05 730.774 199.371 730.774 192.762 730.776 186.154 730.774 179.546 730.774 179.546 734.849 179.552 738.925 179.546 743L206.853 743C213.457 743 214.986 741.474 214.986 734.885L214.986 573.154C214.986 572.169 215.041 571.174 214.933 570.201ZM150.586 584.762C148.15 584.762 146.156 582.794 146.156 580.389 146.156 577.984 148.15 576.016 150.586 576.016L200.276 576.016C202.712 576.016 204.706 577.984 204.706 580.389 204.706 582.794 202.712 584.762 200.276 584.762L150.586 584.762ZM199.629 677.877 199.626 677.877C196.828 677.89 194.43 675.436 194.456 672.585 194.479 669.759 196.967 667.272 199.699 667.339 202.367 667.409 204.657 669.759 204.723 672.501 204.791 675.314 202.374 677.866 199.631 677.877Z" fill="#595959" fill-rule="evenodd" fill-opacity="1"/><path d="M237.25 1031.21 350.39 1031.21 350.39 1035.79 237.25 1035.79ZM241.833 1042.67 223.5 1033.5 241.833 1024.33ZM345.806 1024.33 364.14 1033.5 345.806 1042.67Z" fill="#595959" fill-rule="nonzero" fill-opacity="1"/><path d="M2.35505 13.7496 2.35554 18.3329-2.22779 18.3334-2.22828 13.7501ZM2.35603 22.9162 2.35652 27.4996-2.22682 27.5001-2.22731 22.9167ZM2.35701 32.0829 2.3575 36.6662-2.22584 36.6667-2.22633 32.0834ZM2.35798 41.2496 2.35847 45.8329-2.22486 45.8334-2.22535 41.2501ZM2.35896 50.4162 2.35945 54.9996-2.22388 55.0001-2.22437 50.4167ZM2.35994 59.5829 2.36043 64.1662-2.2229 64.1667-2.22339 59.5834ZM2.36092 68.7496 2.36141 73.3329-2.22192 73.3334-2.22241 68.7501ZM2.3619 77.9162 2.36239 82.4996-2.22095 82.5001-2.22144 77.9167ZM2.36288 87.0829 2.36337 91.6662-2.21997 91.6667-2.22046 87.0834ZM2.36385 96.2496 2.36434 100.833-2.21899 100.833-2.21948 96.2501ZM2.36483 105.416 2.36532 110-2.21801 110-2.2185 105.417ZM2.36581 114.583 2.3663 119.166-2.21703 119.167-2.21752 114.583ZM2.36679 123.75 2.36728 128.333-2.21605 128.333-2.21654 123.75ZM2.36777 132.916 2.36826 137.5-2.21508 137.5-2.21557 132.917ZM2.36875 142.083 2.36924 146.666-2.2141 146.667-2.21459 142.083ZM2.36972 151.25 2.37021 155.833-2.21312 155.833-2.21361 151.25ZM2.3707 160.416 2.37119 165-2.21214 165-2.21263 160.417ZM2.37168 169.583 2.37217 174.166-2.21116 174.167-2.21165 169.583ZM2.37266 178.75 2.37315 183.333-2.21018 183.333-2.21067 178.75ZM2.37364 187.916 2.37413 192.5-2.20921 192.5-2.2097 187.917ZM2.37462 197.083 2.37511 201.666-2.20823 201.667-2.20872 197.083ZM2.37559 206.25 2.37608 210.833-2.20725 210.833-2.20774 206.25ZM3.78781 209.422 8.37114 209.422 8.37114 214.005 3.78781 214.005ZM12.9545 209.422 17.5378 209.422 17.5378 214.005 12.9545 214.005ZM22.1211 209.422 26.7045 209.422 26.7045 214.005 22.1211 214.005ZM31.2878 209.422 35.8711 209.422 35.8711 214.005 31.2878 214.005ZM40.4545 209.422 45.0378 209.422 45.0378 214.005 40.4545 214.005ZM49.6211 209.422 54.2045 209.422 54.2045 214.005 49.6211 214.005ZM58.7878 209.422 63.3711 209.422 63.3711 214.005 58.7878 214.005ZM67.9545 209.422 72.5378 209.422 72.5378 214.005 67.9545 214.005ZM77.1211 209.422 81.7045 209.422 81.7045 214.005 77.1211 214.005ZM86.2878 209.422 90.8711 209.422 90.8711 214.005 86.2878 214.005ZM95.4545 209.422 100.038 209.422 100.038 214.005 95.4545 214.005ZM104.621 209.422 109.204 209.422 109.204 214.005 104.621 214.005ZM113.788 209.422 118.371 209.422 118.371 214.005 113.788 214.005ZM122.954 209.422 127.538 209.422 127.538 214.005 122.954 214.005ZM132.121 209.422 136.704 209.422 136.704 214.005 132.121 214.005ZM141.288 209.422 145.871 209.422 145.871 214.005 141.288 214.005ZM150.454 209.422 155.038 209.422 155.038 214.005 150.454 214.005ZM159.621 209.422 164.204 209.422 164.204 214.005 159.621 214.005ZM168.788 209.422 173.371 209.422 173.371 214.005 168.788 214.005ZM177.954 209.422 182.538 209.422 182.538 214.005 177.954 214.005ZM187.121 209.422 191.704 209.422 191.704 214.005 187.121 214.005ZM196.288 209.422 200.871 209.422 200.871 214.005 196.288 214.005ZM205.454 209.422 210.038 209.422 210.038 214.005 205.454 214.005ZM214.621 209.422 214.879 209.422 214.879 214.005 214.621 214.005ZM-9.08206 18.3754 0 0 9.25108 18.2909ZM210.296 202.547 228.629 211.713 210.296 220.88Z" fill="#595959" fill-rule="nonzero" fill-opacity="1" transform="matrix(1.83697e-16 1 1 -1.83697e-16 235.5 694.5)"/><text fill="#595959" fill-opacity="1" font-family="Arial,Arial_MSFontService,sans-serif" font-style="normal" font-variant="normal" font-weight="700" font-stretch="normal" font-size="32" text-anchor="start" direction="ltr" writing-mode="lr-tb" unicode-bidi="normal" text-decoration="none" transform="matrix(1 0 0 1 128.851 1097)">User</text><text fill="#595959" fill-opacity="1" font-family="Arial,Arial_MSFontService,sans-serif" font-style="normal" font-variant="normal" font-weight="700" font-stretch="normal" font-size="32" text-anchor="start" direction="ltr" writing-mode="lr-tb" unicode-bidi="normal" text-decoration="none" transform="matrix(1 0 0 1 53.7383 805)">Authentication </text><text fill="#595959" fill-opacity="1" font-family="Arial,Arial_MSFontService,sans-serif" font-style="normal" font-variant="normal" font-weight="700" font-stretch="normal" font-size="32" text-anchor="start" direction="ltr" writing-mode="lr-tb" unicode-bidi="normal" text-decoration="none" transform="matrix(1 0 0 1 109.013 837)">Service</text><text fill="#595959" fill-opacity="1" font-family="Arial,Arial_MSFontService,sans-serif" font-style="normal" font-variant="normal" font-weight="700" font-stretch="normal" font-size="32" text-anchor="start" direction="ltr" writing-mode="lr-tb" unicode-bidi="normal" text-decoration="none" transform="matrix(1 0 0 1 405.36 1166)">Data </text><text fill="#595959" fill-opacity="1" font-family="Arial,Arial_MSFontService,sans-serif" font-style="normal" font-variant="normal" font-weight="700" font-stretch="normal" font-size="32" text-anchor="start" direction="ltr" writing-mode="lr-tb" unicode-bidi="normal" text-decoration="none" transform="matrix(1 0 0 1 384.163 1198)">Access </text><text fill="#595959" fill-opacity="1" font-family="Arial,Arial_MSFontService,sans-serif" font-style="normal" font-variant="normal" font-weight="700" font-stretch="normal" font-size="32" text-anchor="start" direction="ltr" writing-mode="lr-tb" unicode-bidi="normal" text-decoration="none" transform="matrix(1 0 0 1 367.548 1230)">Workflow</text><g><g><g><path d="M6.32683 39.4686C9.3708 42.1995 12.8225 44.3126 16.4802 46.1043 24.6524 50.108 33.3312 52.4806 42.2695 53.9387 46.0714 54.5607 49.9144 54.9809 53.7493 55.3392 56.888 55.6275 60.0473 55.7841 63.1983 55.817 67.0743 55.8582 70.9586 55.7841 74.8305 55.6234 77.7962 55.4998 80.7701 55.2692 83.7152 54.8985 87.2123 54.4619 90.7011 53.9058 94.1652 53.255 99.8165 52.1923 105.332 50.6353 110.691 48.5387 115.646 46.5945 120.383 44.2384 124.605 40.9555 127.34 38.8301 129.754 36.4081 131.344 33.2777 132.728 30.5467 133.123 27.7087 132.204 24.7389 131.352 21.9833 129.721 19.7219 127.731 17.6995 124.407 14.3178 120.441 11.8505 116.219 9.77446 109.014 6.2321 101.378 4.0243 93.5309 2.48378 89.6631 1.72587 85.7706 1.11626 81.8452 0.794973 78.4223 0.518998 74.9952 0.329523 71.5723 0.102976 71.2634 0.0823807 70.9586 0.0411903 70.6497 0.00823807L62.0656 0.00823807C61.8226 0.0370713 61.5837 0.0906187 61.3406 0.0947378 56.9209 0.201833 52.5177 0.556069 48.1268 1.08331 44.0201 1.57759 39.9464 2.26547 35.9097 3.16754 30.4273 4.39501 25.0643 6.00555 19.8908 8.21335 15.8171 9.95158 11.9164 12.007 8.39047 14.7091 5.54834 16.888 3.02337 19.3595 1.37576 22.597-0.222428 25.7398-0.457213 28.9527 0.902068 32.2479 2.08835 35.1271 4.04901 37.4255 6.33095 39.4727Z" fill="#595959" fill-rule="nonzero" fill-opacity="1" transform="matrix(1.00308 0 0 1 1283 937.26)"/><path d="M124.844 73.2776C126.714 71.803 128.431 70.1636 129.865 68.2071 131.64 65.7768 132.736 63.1201 132.715 60.039 132.674 54.5648 132.703 49.0906 132.703 43.6123L132.703 42.978C132.497 43.1675 132.39 43.2663 132.283 43.3693 129.951 45.6636 127.356 47.616 124.58 49.3337 118.764 52.9337 112.487 55.4793 105.958 57.444 99.9607 59.2482 93.8563 60.5333 87.6571 61.3818 85.301 61.7031 82.9326 61.975 80.56 62.1727 77.6149 62.4198 74.6616 62.6752 71.7082 62.7288 67.4698 62.8029 63.2272 62.7576 58.9887 62.634 56.0683 62.5475 53.1479 62.3127 50.2398 62.0244 47.6449 61.7649 45.0663 61.3612 42.4837 60.9823 38.3276 60.3768 34.225 59.4871 30.1637 58.412 24.4753 56.9086 18.9393 54.9809 13.6505 52.3817 9.16485 50.1781 4.94696 47.5583 1.25219 44.1601 0.856759 43.7977 0.473689 43.4228 0.00411903 42.978L0.00411903 43.4064C0.00411903 49.1112-0.0123571 54.8161 0.0247142 60.521 0.0288332 61.4313 0.172999 62.358 0.399546 63.2395 1.15745 66.1887 2.88744 68.5695 4.97991 70.7073 7.73142 73.5165 10.9566 75.6831 14.396 77.5449 20.4057 80.7989 26.8108 83.0026 33.4218 84.6461 39.8352 86.2402 46.3391 87.3153 52.9296 87.7972 56.8633 88.0855 60.8052 88.2503 64.743 88.3697 67.1073 88.4439 69.4798 88.378 71.84 88.2832 74.7275 88.1638 77.6232 88.0526 80.4983 87.7519 81.5157 87.6448 82.5289 87.4677 83.5463 87.3441 94.3217 78.5005 108.1 73.187 123.126 73.187 123.703 73.187 124.263 73.257 124.84 73.2735Z" fill="#595959" fill-rule="nonzero" fill-opacity="1" transform="matrix(1.00308 0 0 1 1283 937.26)"/><path d="M71.0121 95.2856C65.5544 95.4462 60.0967 95.3803 54.6554 94.9149 51.6444 94.6595 48.6334 94.3794 45.6389 93.9881 41.5569 93.4526 37.5079 92.7071 33.496 91.7638 26.4524 90.1038 19.6025 87.8837 13.115 84.6379 8.97125 82.566 5.07053 80.1193 1.61466 77.0053 1.09978 76.5399 0.59726 76.0579 0.00823807 75.506L0.00823807 76.1527C0.00823807 81.3756 0.0288332 86.6027 0 91.8338-0.0123571 94.367 0.749664 96.6449 2.06775 98.762 3.88013 101.67 6.35155 103.944 9.09482 105.937 13.3745 109.047 18.1031 111.317 23.0378 113.162 30.5715 115.975 38.3647 117.718 46.3185 118.801 50.4746 119.365 54.6431 119.749 58.828 119.942 60.1296 120 61.4313 120.004 62.7329 120.037 65.1425 110.678 69.6323 102.168 75.7325 95.0467 74.155 95.1497 72.5815 95.2403 71.0039 95.2856Z" fill="#595959" fill-rule="nonzero" fill-opacity="1" transform="matrix(1.00308 0 0 1 1283 937.26)"/><path d="M61.3653 126.965C58.931 126.887 56.4967 126.796 54.0664 126.586 51.1254 126.331 48.1803 126.055 45.2517 125.659 41.2398 125.116 37.2567 124.374 33.3106 123.439 26.3 121.775 19.4871 119.555 13.0326 116.313 8.83121 114.204 4.88105 111.712 1.40047 108.528 0.959735 108.125 0.527236 107.709 0.0123571 107.223L0.0123571 107.845C0.00823807 112.969 0.0288332 118.101 0 123.229-0.0164761 125.779 0.745545 128.073 2.07599 130.203 3.90896 133.14 6.40921 135.426 9.18956 137.432 13.4775 140.529 18.2102 142.782 23.149 144.632 28.6602 146.699 34.328 148.223 40.1194 149.22 44.1601 149.912 48.2298 150.46 52.3076 150.897 55.3557 151.226 58.4367 151.317 61.5054 151.444 61.9379 151.461 62.3663 151.44 62.7988 151.453 61.4724 146.39 60.6981 141.106 60.6981 135.627 60.6981 132.678 60.974 129.803 61.3695 126.965Z" fill="#595959" fill-rule="nonzero" fill-opacity="1" transform="matrix(1.00308 0 0 1 1283 937.26)"/><path d="M162.5 116.523 138.272 116.523 138.272 92.2622 106.481 92.2622 106.481 116.523 82.253 116.523 82.253 148.26 106.481 148.26 106.481 172.48 138.272 172.48 138.272 148.26 162.5 148.26 162.5 116.523Z" fill="#595959" fill-rule="nonzero" fill-opacity="1" transform="matrix(1.00308 0 0 1 1283 937.26)"/></g></g></g><text fill="#595959" fill-opacity="1" font-family="Arial,Arial_MSFontService,sans-serif" font-style="normal" font-variant="normal" font-weight="700" font-stretch="normal" font-size="32" text-anchor="start" direction="ltr" writing-mode="lr-tb" unicode-bidi="normal" text-decoration="none" transform="matrix(1 0 0 1 1315.6 1148)">Health </text><text fill="#595959" fill-opacity="1" font-family="Arial,Arial_MSFontService,sans-serif" font-style="normal" font-variant="normal" font-weight="700" font-stretch="normal" font-size="32" text-anchor="start" direction="ltr" writing-mode="lr-tb" unicode-bidi="normal" text-decoration="none" transform="matrix(1 0 0 1 1284.36 1180)">Data Store</text><g><g><g><path d="M522.469 1091.19C522.469 1103.9 512.162 1114.21 499.448 1114.21 486.734 1114.21 476.427 1103.9 476.427 1091.19 476.427 1078.48 486.734 1068.17 499.448 1068.17 512.162 1068.17 522.469 1078.48 522.469 1091.19Z" fill="#595959" fill-rule="nonzero" fill-opacity="1"/><path d="M414.271 978.388C414.271 991.102 403.964 1001.41 391.25 1001.41 378.536 1001.41 368.229 991.102 368.229 978.388 368.229 965.674 378.536 955.367 391.25 955.367 403.964 955.367 414.271 965.674 414.271 978.388Z" fill="#595959" fill-rule="nonzero" fill-opacity="1"/><path d="M499.448 1003.66 474.148 978.365 499.448 953.894 524.748 978.365 499.448 1003.66Z" fill="#595959" fill-rule="nonzero" fill-opacity="1"/><path d="M368.229 1068.03 414.271 1068.03 414.271 1114.07 368.229 1114.07Z" fill="#595959" fill-rule="nonzero" fill-opacity="1"/><path d="M466.919 1086.59 432.687 1086.59 437.292 1081.98C438.868 1080.41 438.868 1077.85 437.292 1076.27 435.715 1074.7 433.159 1074.7 431.582 1076.27L419.496 1088.36C418.752 1089.12 418.332 1090.15 418.322 1091.21 418.327 1092.28 418.748 1093.31 419.496 1094.07L431.582 1106.15C433.165 1107.73 435.727 1107.73 437.303 1106.14 438.88 1104.56 438.874 1102 437.292 1100.42L432.687 1095.82 466.919 1095.82Z" fill="#595959" fill-rule="nonzero" fill-opacity="1"/><path d="M468.485 975.418 456.399 963.332C454.822 961.762 452.271 961.768 450.701 963.344 449.131 964.92 449.136 967.471 450.713 969.042L455.317 973.646 423.479 973.646 423.479 982.854 455.34 982.854 450.736 987.458C449.146 989.022 449.126 991.578 450.69 993.167 452.253 994.757 454.809 994.777 456.399 993.214L468.485 981.128C470.053 979.548 470.053 976.998 468.485 975.418Z" fill="#595959" fill-rule="nonzero" fill-opacity="1"/><path d="M514.457 1044.69C512.877 1043.12 510.328 1043.12 508.748 1044.69L504.144 1049.29 504.144 1012.78 494.844 1012.78 494.844 1049.34 490.239 1044.73C488.663 1043.16 486.112 1043.17 484.542 1044.75 482.972 1046.32 482.977 1048.87 484.553 1050.44L496.616 1062.53C498.196 1064.1 500.745 1064.1 502.325 1062.53L514.411 1050.44C516.013 1048.88 516.045 1046.32 514.483 1044.71 514.474 1044.71 514.466 1044.7 514.457 1044.69Z" fill="#595959" fill-rule="nonzero" fill-opacity="1"/></g></g></g><path d="M168.806 876.247 168.88 945.088 164.296 945.093 164.223 876.252ZM157.353 880.843 166.5 862.5 175.686 880.823ZM175.75 940.497 166.603 958.841 157.416 940.517Z" fill="#595959" fill-rule="nonzero" fill-opacity="1"/><rect x="815" y="617" width="323" height="482" fill="#595959" fill-opacity="1"/><g><g><g><path d="M1023.25 380.375C1023.25 387.831 1002.1 393.875 976 393.875 949.905 393.875 928.75 387.831 928.75 380.375 928.75 372.919 949.905 366.875 976 366.875 1002.1 366.875 1023.25 372.919 1023.25 380.375Z" fill="#595959" fill-rule="nonzero" fill-opacity="1"/><path d="M1009.75 414.125C1007.73 414.125 1006.38 412.775 1006.38 410.75 1006.38 408.725 1007.73 407.375 1009.75 407.375 1011.78 407.375 1013.13 408.725 1013.13 410.75 1013.13 412.775 1011.78 414.125 1009.75 414.125ZM976 400.625C950.013 400.625 928.75 394.55 928.75 387.125L928.75 414.125C928.75 421.55 950.013 427.625 976 427.625 1001.99 427.625 1023.25 421.55 1023.25 414.125L1023.25 387.125C1023.25 394.55 1001.99 400.625 976 400.625Z" fill="#595959" fill-rule="nonzero" fill-opacity="1"/><path d="M1009.75 447.875C1007.73 447.875 1006.38 446.525 1006.38 444.5 1006.38 442.475 1007.73 441.125 1009.75 441.125 1011.78 441.125 1013.13 442.475 1013.13 444.5 1013.13 446.525 1011.78 447.875 1009.75 447.875ZM976 434.375C950.013 434.375 928.75 428.3 928.75 420.875L928.75 447.875C928.75 455.3 950.013 461.375 976 461.375 1001.99 461.375 1023.25 455.3 1023.25 447.875L1023.25 420.875C1023.25 428.3 1001.99 434.375 976 434.375Z" fill="#595959" fill-rule="nonzero" fill-opacity="1"/><path d="M1009.75 481.625C1007.73 481.625 1006.38 480.275 1006.38 478.25 1006.38 476.225 1007.73 474.875 1009.75 474.875 1011.78 474.875 1013.13 476.225 1013.13 478.25 1013.13 480.275 1011.78 481.625 1009.75 481.625ZM976 468.125C950.013 468.125 928.75 462.05 928.75 454.625L928.75 481.625C928.75 489.05 950.013 495.125 976 495.125 1001.99 495.125 1023.25 489.05 1023.25 481.625L1023.25 454.625C1023.25 462.05 1001.99 468.125 976 468.125Z" fill="#595959" fill-rule="nonzero" fill-opacity="1"/></g></g></g><text fill="#595959" fill-opacity="1" font-family="Arial,Arial_MSFontService,sans-serif" font-style="normal" font-variant="normal" font-weight="700" font-stretch="normal" font-size="32" text-anchor="start" direction="ltr" writing-mode="lr-tb" unicode-bidi="normal" text-decoration="none" transform="matrix(1 0 0 1 727.202 423)">Overarching </text><text fill="#595959" fill-opacity="1" font-family="Arial,Arial_MSFontService,sans-serif" font-style="normal" font-variant="normal" font-weight="700" font-stretch="normal" font-size="32" text-anchor="start" direction="ltr" writing-mode="lr-tb" unicode-bidi="normal" text-decoration="none" transform="matrix(1 0 0 1 794.806 455)">Policies</text><rect x="863" y="666" width="232" height="155" fill="#D9D9D9" fill-opacity="1"/><text fill="#595959" fill-opacity="1" font-family="Arial,Arial_MSFontService,sans-serif" font-style="normal" font-variant="normal" font-weight="700" font-stretch="normal" font-size="28" text-anchor="start" direction="ltr" writing-mode="lr-tb" unicode-bidi="normal" text-decoration="none" transform="matrix(1 0 0 1 923.998 721)">Consent </text><text fill="#595959" fill-opacity="1" font-family="Arial,Arial_MSFontService,sans-serif" font-style="normal" font-variant="normal" font-weight="700" font-stretch="normal" font-size="28" text-anchor="start" direction="ltr" writing-mode="lr-tb" unicode-bidi="normal" text-decoration="none" transform="matrix(1 0 0 1 921.707 754)">Decision </text><text fill="#595959" fill-opacity="1" font-family="Arial,Arial_MSFontService,sans-serif" font-style="normal" font-variant="normal" font-weight="700" font-stretch="normal" font-size="28" text-anchor="start" direction="ltr" writing-mode="lr-tb" unicode-bidi="normal" text-decoration="none" transform="matrix(1 0 0 1 929.727 787)">Service</text><path d="M978.351 526.233 979.094 603.498 975.657 603.531 974.914 526.266ZM967.51 530.921 976.5 512.5 985.843 530.744ZM986.498 598.843 977.508 617.264 968.165 599.02Z" fill="#595959" fill-rule="nonzero" fill-opacity="1"/><path d="M1138.51 750.208 1760.2 752.279 1760.19 756.862 1138.49 754.792ZM1755.64 745.389 1783.11 754.647 1755.58 763.722Z" fill="#595959" fill-rule="nonzero" fill-opacity="1"/><text fill="#595959" fill-opacity="1" font-family="Arial,Arial_MSFontService,sans-serif" font-style="normal" font-variant="normal" font-weight="700" font-stretch="normal" font-size="37" text-anchor="start" direction="ltr" writing-mode="lr-tb" unicode-bidi="normal" text-decoration="none" transform="matrix(1 0 0 1 1641.8 944)">Consent Administration </text><text fill="#595959" fill-opacity="1" font-family="Arial,Arial_MSFontService,sans-serif" font-style="normal" font-variant="normal" font-weight="700" font-stretch="normal" font-size="37" text-anchor="start" direction="ltr" writing-mode="lr-tb" unicode-bidi="normal" text-decoration="none" transform="matrix(1 0 0 1 1783.88 988)">Service</text><text fill="#595959" fill-opacity="1" font-family="Arial,Arial_MSFontService,sans-serif" font-style="italic" font-variant="normal" font-weight="700" font-stretch="normal" font-size="28" text-anchor="start" direction="ltr" writing-mode="lr-tb" unicode-bidi="normal" text-decoration="none" transform="matrix(1 0 0 1 1381.21 708)">consent</text><text fill="#595959" fill-opacity="1" font-family="Arial,Arial_MSFontService,sans-serif" font-style="italic" font-variant="normal" font-weight="700" font-stretch="normal" font-size="28" text-anchor="start" direction="ltr" writing-mode="lr-tb" unicode-bidi="normal" text-decoration="none" transform="matrix(1 0 0 1 1295.84 794)">disclosure audit event</text><path d="M22.9167-2.29165 639.138-2.29131 639.138 2.29203 22.9167 2.29168ZM27.5 9.16668 0 0 27.5-9.16665Z" fill="#595959" fill-rule="nonzero" fill-opacity="1" transform="matrix(1 0 0 -1 1138.5 727.5)"/><rect x="860" y="850" width="237" height="156" fill="#D9D9D9" fill-opacity="1"/><text fill="#595959" fill-opacity="1" font-family="Arial,Arial_MSFontService,sans-serif" font-style="normal" font-variant="normal" font-weight="700" font-stretch="normal" font-size="28" text-anchor="start" direction="ltr" writing-mode="lr-tb" unicode-bidi="normal" text-decoration="none" transform="matrix(1 0 0 1 923.482 906)">Consent </text><text fill="#595959" fill-opacity="1" font-family="Arial,Arial_MSFontService,sans-serif" font-style="normal" font-variant="normal" font-weight="700" font-stretch="normal" font-size="28" text-anchor="start" direction="ltr" writing-mode="lr-tb" unicode-bidi="normal" text-decoration="none" transform="matrix(1 0 0 1 894.264 939)">Enforcement </text><text fill="#595959" fill-opacity="1" font-family="Arial,Arial_MSFontService,sans-serif" font-style="normal" font-variant="normal" font-weight="700" font-stretch="normal" font-size="28" text-anchor="start" direction="ltr" writing-mode="lr-tb" unicode-bidi="normal" text-decoration="none" transform="matrix(1 0 0 1 929.212 972)">Service</text><path d="M0.00148028-2.29167 574.344-1.92068 574.341 2.66266-0.00148028 2.29167ZM569.766-8.79863 597.26 0.385794 569.754 9.5347Z" fill="#595959" fill-rule="nonzero" fill-opacity="1" transform="matrix(-1 0 0 1 2519.76 745.5)"/><text fill="#595959" fill-opacity="1" font-family="Arial,Arial_MSFontService,sans-serif" font-style="italic" font-variant="normal" font-weight="700" font-stretch="normal" font-size="28" text-anchor="start" direction="ltr" writing-mode="lr-tb" unicode-bidi="normal" text-decoration="none" transform="matrix(1 0 0 1 2109.08 634)">review consent </text><text fill="#595959" fill-opacity="1" font-family="Arial,Arial_MSFontService,sans-serif" font-style="italic" font-variant="normal" font-weight="700" font-stretch="normal" font-size="28" text-anchor="start" direction="ltr" writing-mode="lr-tb" unicode-bidi="normal" text-decoration="none" transform="matrix(1 0 0 1 2100.48 666)">sing/file consent </text><text fill="#595959" fill-opacity="1" font-family="Arial,Arial_MSFontService,sans-serif" font-style="italic" font-variant="normal" font-weight="700" font-stretch="normal" font-size="28" text-anchor="start" direction="ltr" writing-mode="lr-tb" unicode-bidi="normal" text-decoration="none" transform="matrix(1 0 0 1 2107.36 698)">r</text><text fill="#595959" fill-opacity="1" font-family="Arial,Arial_MSFontService,sans-serif" font-style="italic" font-variant="normal" font-weight="700" font-stretch="normal" font-size="28" text-anchor="start" direction="ltr" writing-mode="lr-tb" unicode-bidi="normal" text-decoration="none" transform="matrix(1 0 0 1 2118.24 698)">evoke consent</text><text fill="#595959" fill-opacity="1" font-family="Arial,Arial_MSFontService,sans-serif" font-style="italic" font-variant="normal" font-weight="700" font-stretch="normal" font-size="28" text-anchor="start" direction="ltr" writing-mode="lr-tb" unicode-bidi="normal" text-decoration="none" transform="matrix(1 0 0 1 2096.17 730)">delegate consent</text><text fill="#595959" fill-opacity="1" font-family="Arial,Arial_MSFontService,sans-serif" font-style="normal" font-variant="normal" font-weight="700" font-stretch="normal" font-size="28" text-anchor="start" direction="ltr" writing-mode="lr-tb" unicode-bidi="normal" text-decoration="none" transform="matrix(1 0 0 1 2582.42 794)">Consenter</text><text fill="#000000" fill-opacity="1" font-family="Arial,Arial_MSFontService,sans-serif" font-style="normal" font-variant="normal" font-weight="700" font-stretch="normal" font-size="23" text-anchor="start" direction="ltr" writing-mode="lr-tb" unicode-bidi="normal" text-decoration="none" transform="matrix(1 0 0 1 2499.92 824)">(patient, guardian, delegate)</text><g><g><g><path d="M82.4521 102.039C81.0519 103.949 79.0942 104.002 77.0346 104 52.9464 103.988 28.8582 103.993 4.77006 103.991 4.19398 103.991 3.6145 104.007 3.04352 103.947 0.830979 103.719-0.168235 102.805 0.0237908 100.588 0.246405 98.0232 0.613463 95.4232 1.32719 92.9575 4.9247 80.5421 12.6975 71.6545 24.5538 65.9566 25.0347 66.723 25.4918 67.4062 25.9014 68.1165 27.7877 71.3911 30.041 74.3531 33.127 76.5979 38.7025 80.6525 45.0649 80.486 50.3091 75.9946 51.8945 74.6369 53.2812 72.997 54.5421 71.3214 55.7436 69.7241 56.6595 67.9126 57.9119 65.8495 64.6022 68.7095 70.12 73.0803 74.5774 78.8529 79.0602 84.6562 81.6178 91.3023 82.8277 98.4718 82.8277 98.4718 83.2984 101.145 82.4538 102.035Z" fill="#595959" fill-rule="nonzero" fill-opacity="1" transform="matrix(1.01747 0 0 1 2608.3 642)"/><path d="M67.673 28.2567C72.3478 31.5483 73.4966 37.9667 70.0843 42.99 69.0205 44.5551 67.622 45.7956 65.683 45.9044 64.2556 45.9842 63.722 46.7421 63.1918 47.8518 61.6505 51.0806 59.6011 53.9541 57.0045 56.4403 48.071 64.9914 35.3361 65.3024 26.0186 57.1676 23.3133 54.8055 21.1891 51.9846 19.5255 48.8085 19.0836 47.9657 18.652 47.1177 18.2509 46.3394 13.0985 45.2161 10.9778 42.9543 10.4374 38.0993 9.8205 32.5509 11.231 29.9169 16.0231 27.7469 16.2848 25.3117 16.3817 22.812 16.8609 20.3887 17.3418 17.9604 17.9706 15.5099 18.9409 13.2413 22.5656 4.76666 29.4547 0.815685 38.3151 0.112157 41.5302-0.142745 44.8508 0.054379 48.0421 0.562483 57.0419 1.99333 63.0032 7.2477 65.5522 15.9534 66.6703 19.7719 66.9405 23.8384 67.6746 28.2567ZM65.7187 40.8352C68.0995 37.6948 68.0706 34.6462 65.6235 32.7684 65.4468 33.1066 65.2616 33.4125 65.1188 33.7388 64.7229 34.636 63.9837 35.2835 63.1119 34.8399 62.4849 34.5205 62.1212 33.6147 61.7422 32.9146 61.5757 32.607 61.6522 32.1618 61.6437 31.7794 61.5774 28.413 60.0293 25.7179 57.7607 23.3847 57.1064 22.7117 56.2704 22.2155 55.4003 21.5494 56.9909 19.7209 58.3164 18.3546 59.426 16.832 59.771 16.3596 59.8033 15.2958 59.4991 14.7928 58.9366 13.8666 57.9748 14.1453 57.2679 14.7741 56.1225 15.792 55.0366 16.8762 53.9457 17.9536 50.5147 21.3471 46.7829 24.3329 42.3527 26.3296 36.6225 28.9126 30.8873 29.1675 25.1809 26.2175 24.773 26.0067 24.3227 25.8759 23.9556 25.7332 22.0082 26.8377 21.116 28.4385 20.9087 30.4675 20.8204 31.3257 20.9223 32.2501 20.6283 33.0267 20.3581 33.7388 19.7753 34.5561 19.1261 34.8195 18.72 34.9844 17.889 34.2639 17.3316 33.8356 16.9425 33.5365 16.6892 33.059 16.3477 32.6223 14.091 35.3259 14.3544 38.7569 16.8745 41.0952 17.0988 40.9644 17.3367 40.8216 17.5763 40.6857 19.6903 39.4893 20.6147 39.7867 21.546 41.9857 21.8451 42.6909 22.083 43.4216 22.3685 44.1319 24.044 48.3089 26.5233 51.9115 30.1328 54.6424 34.201 57.7199 38.728 59.1864 43.8787 58.2807 50.4195 57.1319 54.9177 53.1911 58.1362 47.6564 59.2816 45.6868 59.9902 43.4624 60.896 41.3535 61.8221 39.1971 62.9454 38.8606 64.8826 40.1742 65.1749 40.373 65.4417 40.6109 65.7221 40.8318Z" fill="#595959" fill-rule="nonzero" fill-opacity="1" transform="matrix(1.01747 0 0 1 2608.3 642)"/><path d="M54.0561 33.2544C53.8624 35.0218 52.5488 36.196 51.0364 35.9547 49.6072 35.727 48.6794 34.2265 48.868 32.4456 49.0464 30.7632 50.1663 29.6162 51.5581 29.6875 53.0671 29.7657 54.2532 31.4599 54.0561 33.2544Z" fill="#595959" fill-rule="nonzero" fill-opacity="1" transform="matrix(1.01747 0 0 1 2608.3 642)"/><path d="M32.59 32.969C32.5288 34.7618 31.3444 36.0499 29.8252 35.9785 28.3433 35.9071 27.2422 34.4865 27.3101 32.7294 27.3781 30.9773 28.6135 29.6145 30.0699 29.6875 31.5024 29.7589 32.6478 31.2509 32.59 32.969Z" fill="#595959" fill-rule="nonzero" fill-opacity="1" transform="matrix(1.01747 0 0 1 2608.3 642)"/></g></g></g><g><g><g><path d="M184.667 993C184.667 1003.31 176.309 1011.67 166 1011.67 155.691 1011.67 147.333 1003.31 147.333 993 147.333 982.691 155.691 974.333 166 974.333 176.309 974.333 184.667 982.691 184.667 993Z" fill="#595959" fill-rule="nonzero" fill-opacity="1"/><path d="M203.333 1053.67 203.333 1035C203.333 1032.2 201.933 1029.4 199.6 1027.53 194.467 1023.33 187.933 1020.53 181.4 1018.67 176.733 1017.27 171.6 1016.33 166 1016.33 160.867 1016.33 155.733 1017.27 150.6 1018.67 144.067 1020.53 137.533 1023.8 132.4 1027.53 130.067 1029.4 128.667 1032.2 128.667 1035L128.667 1053.67 203.333 1053.67Z" fill="#595959" fill-rule="nonzero" fill-opacity="1"/></g></g></g><g><g><g><path d="M31.1493 122.214C39.6695 124.383 43.5408 128.256 43.2321 134.298 42.9217 139.721 39.0504 144.213 33.7824 145.143 28.5161 146.072 23.2498 142.974 21.3909 138.016 19.2216 132.439 21.3909 127.326 27.897 122.988 27.7418 121.439 27.4331 119.734 27.1228 118.03 26.0381 108.734 25.2639 99.4378 26.3485 90.1416 26.8124 85.3391 27.7418 80.535 29.9111 76.1981 30.9958 74.0288 32.5443 72.1699 34.0928 70.311 34.4032 70.0006 35.6413 69.8455 35.9517 70.1558 36.2621 70.4662 36.4156 71.7044 36.1069 72.0147 30.6854 77.9018 29.9111 85.3391 28.9817 92.7764 28.3626 99.1291 29.292 115.707 31.1509 122.214L31.1509 122.214ZM31.6131 142.201C36.2604 142.201 40.1334 138.483 40.1334 133.989 40.1334 129.651 36.4156 125.778 31.9235 125.623 27.4315 125.467 23.5585 129.34 23.5585 133.989 23.5585 138.483 27.1211 142.046 31.6131 142.201Z" fill="#595959" fill-rule="nonzero" fill-opacity="1" transform="matrix(1.08956 0 0 1 1540 1350.14)"/><path d="M73.4367 87.5084C72.0434 88.1275 71.4227 87.5084 71.114 86.5789 70.9588 85.8047 70.8036 84.8752 70.4949 83.9441 69.5654 79.7607 68.1721 75.7325 65.0734 72.4786 64.4543 71.8595 63.68 70.9301 64.763 70.3093 65.2286 69.999 66.4667 70.4645 66.9323 70.9284 68.1721 72.4769 69.5654 74.1823 70.3397 76.0412 71.5795 78.9848 72.3538 82.0835 73.1281 85.027 73.5919 85.9565 73.4384 86.886 73.4384 87.505L73.4384 87.505Z" fill="#595959" fill-rule="nonzero" fill-opacity="1" transform="matrix(1.08956 0 0 1 1540 1350.14)"/><path d="M36.7243 134.145C36.5691 136.933 34.4015 139.102 31.6131 138.947 28.6696 138.947 26.6555 136.623 26.8107 133.524 26.9659 130.735 29.2887 128.721 32.077 128.877 34.8654 129.032 36.8795 131.355 36.7243 134.145L36.7243 134.145Z" fill="#595959" fill-rule="nonzero" fill-opacity="1" transform="matrix(1.08956 0 0 1 1540 1350.14)"/><path d="M81.6466 118.185C80.0981 118.03 79.1686 118.649 78.7031 120.199 78.5479 120.819 78.3927 121.439 78.3927 122.058L78.3927 122.524 78.2375 122.524C78.0823 123.453 77.9271 124.538 77.7736 125.467 77.1545 129.185 76.689 133.058 75.7595 136.778 74.9853 139.721 73.5902 142.51 70.338 143.749 68.6343 144.369 68.1687 145.764 68.7895 147.159 69.4086 148.554 70.6484 149.017 72.3521 148.554 74.8301 147.779 76.689 146.074 78.2392 143.906 79.9429 141.582 80.8724 138.794 81.4914 136.003L81.8018 136.003C81.8018 135.54 81.957 134.919 81.957 134.455 82.5761 129.961 83.1968 125.314 83.8159 120.512 83.8159 119.427 83.0416 118.342 81.6466 118.187Z" fill="#595959" fill-rule="nonzero" fill-opacity="1" transform="matrix(1.08956 0 0 1 1540 1350.14)"/><path d="M63.987 142.356C62.1281 140.808 61.0435 138.792 61.0435 136.314 61.0435 134.765 61.0435 133.215 61.1987 131.511 61.8178 127.638 62.2833 123.61 62.9024 119.737 63.0576 118.808 63.3663 117.723 63.0576 116.794 62.7472 116.019 61.973 115.09 61.1987 114.935 60.4244 114.78 59.3398 115.245 58.7207 115.864 58.2568 116.328 58.1017 117.413 57.9465 118.342 57.9465 118.653 57.7913 118.961 57.7913 119.272L57.4809 119.272C56.8618 123.921 56.2411 128.568 55.622 133.217 55.7772 135.076 55.9324 136.935 56.2411 138.794 56.8601 141.737 58.1 144.372 60.5779 146.231 62.2817 147.471 63.9854 147.471 64.9148 146.231 65.9995 144.991 65.8443 143.906 63.9854 142.358Z" fill="#595959" fill-rule="nonzero" fill-opacity="1" transform="matrix(1.08956 0 0 1 1540 1350.14)"/><path d="M79.1686 31.2673C84.435 34.9851 85.6748 42.1121 81.8018 47.6904 80.562 49.3942 79.0135 50.7892 76.8442 50.9444 75.2957 51.0996 74.6749 51.8738 74.0558 53.1137 72.3521 56.678 70.0276 59.9302 67.241 62.7202 57.3274 72.1716 43.0752 72.6355 32.6978 63.4945 29.7542 60.8596 27.2763 57.7626 25.4174 54.1983 24.9535 53.2688 24.4879 52.3394 24.024 51.4099 18.2921 50.1701 15.9694 47.6921 15.3503 42.2689 14.7312 36.0715 16.2797 33.1279 21.5461 30.8035 21.8564 28.0151 22.0099 25.3803 22.4755 22.5919 22.9394 19.9587 23.7153 17.1687 24.7983 14.6907 28.8248 5.23765 36.5708 0.899088 46.3292 0.124826 49.8918-0.185553 53.6096 0.124826 57.1722 0.590395 67.241 2.13892 73.9023 8.02769 76.6907 17.7878 78.084 21.816 78.3944 26.4649 79.1686 31.2673L79.1686 31.2673ZM76.9994 45.366C79.6325 41.8017 79.6325 38.5494 76.8442 36.3802 76.689 36.6905 76.3803 37.1544 76.2251 37.4648 75.7595 38.3943 74.9853 39.1685 74.0558 38.7046 73.2816 38.3943 72.9712 37.3096 72.5073 36.5354 72.3521 36.225 72.3521 35.7611 72.3521 35.2955 72.3521 31.5777 70.4932 28.479 68.0152 25.9993 67.241 25.2251 66.3115 24.7595 65.3821 23.9852 67.0858 21.9711 68.6343 20.4209 69.8741 18.7172 70.1845 18.2516 70.338 17.0135 70.0293 16.3927 69.4102 15.3081 68.3256 15.6185 67.5514 16.3927 66.3115 17.4774 65.0734 18.7172 63.8335 19.9571 59.9606 23.6749 55.9341 27.084 50.9764 29.2532 44.6255 32.1968 38.2745 32.352 31.9235 29.0981 31.458 28.7877 30.9941 28.7877 30.5302 28.6342 28.3609 29.874 27.4315 31.5777 27.1228 33.9022 26.9676 34.8316 27.1228 35.9163 26.8124 36.6905 26.502 37.4648 25.8829 38.3943 25.1087 38.7046 24.6431 38.8598 23.7153 38.0856 23.0946 37.62 22.6307 37.3096 22.3203 36.6905 22.0099 36.225 19.532 39.1685 19.8407 43.0432 22.629 45.6764 22.9394 45.5212 23.0929 45.366 23.4033 45.2125 25.7261 43.8175 26.8107 44.283 27.8953 46.6075 28.2057 47.3818 28.5144 48.156 28.8248 48.932 30.6837 53.5792 33.472 57.6091 37.4985 60.7061 41.9906 64.1152 47.1017 65.819 52.8336 64.7343 60.1141 63.4945 65.0717 59.0024 68.6343 52.9602 69.8741 50.7909 70.6484 48.3112 71.733 45.9884 72.8177 43.664 74.0558 43.2001 76.2251 44.7486 76.3803 44.9038 76.689 45.059 76.9994 45.3677Z" fill="#595959" fill-rule="nonzero" fill-opacity="1" transform="matrix(1.08956 0 0 1 1540 1350.14)"/><path d="M24.0223 76.9724C12.7137 83.4802 5.12463 92.9299 1.56202 105.635 0.787756 108.424 0.322187 111.367 0.0134948 114.312L0.0134948 114.468C-0.141695 116.792 1.09814 117.877 3.42092 118.032L24.7983 118.032 24.7983 117.877C23.7136 108.58 22.9394 99.2843 24.024 89.9881 24.4879 85.1856 25.4174 80.3815 27.5866 76.0446 27.7418 75.7342 27.897 75.4255 28.0522 75.1152 28.0522 74.96 27.897 74.96 27.897 74.8048 26.6572 75.4239 25.2639 76.1998 24.024 76.9741Z" fill="#595959" fill-rule="nonzero" fill-opacity="1" transform="matrix(1.08956 0 0 1 1540 1350.14)"/><path d="M98.0664 111.833C96.673 103.621 93.7295 96.1838 88.6167 89.5225 84.7437 84.5649 80.2516 80.5367 74.9853 77.4379 75.9147 81.3109 76.689 84.8752 77.3081 88.4379 77.9271 92.466 77.9271 96.6494 78.2375 100.988 85.8283 106.566 87.0665 108.736 86.7578 117.566L92.9535 117.566C95.7419 117.566 97.4456 116.637 98.0647 114.931 98.375 113.536 98.0647 111.833 98.0647 111.833Z" fill="#595959" fill-rule="nonzero" fill-opacity="1" transform="matrix(1.08956 0 0 1 1540 1350.14)"/><path d="M73.4367 106.72C69.4086 106.101 65.6925 108.734 64.9165 113.073 64.7613 114.312 64.6061 115.706 64.2974 117.256L79.1686 117.256C79.3238 116.637 79.6325 116.171 79.6325 115.552 80.4068 111.369 77.6184 107.496 73.4367 106.722Z" fill="#595959" fill-rule="nonzero" fill-opacity="1" transform="matrix(1.08956 0 0 1 1540 1350.14)"/><path d="M65.2269 78.8313C64.7613 79.6055 64.2974 80.3815 63.8335 81.0006 62.4402 82.8595 61.0452 84.5649 59.3415 86.1134L59.0311 86.4238C57.4826 87.8188 55.6237 88.9017 53.92 89.5225 50.8212 90.6071 47.7242 90.7623 44.6255 89.6777 42.9217 89.0586 41.218 88.2827 39.5143 87.0445 37.1915 85.3408 35.3326 83.3267 33.7824 81.1574 30.5302 90.4536 30.6837 110.131 33.0082 117.413L56.2444 117.413C56.3996 108.891 59.6519 102.385 68.4825 100.215 68.9464 92.4677 67.7082 83.7923 65.2302 78.8346Z" fill="#595959" fill-rule="nonzero" fill-opacity="1" transform="matrix(1.08956 0 0 1 1540 1350.14)"/></g></g></g><text fill="#595959" fill-opacity="1" font-family="Arial,Arial_MSFontService,sans-serif" font-style="normal" font-variant="normal" font-weight="700" font-stretch="normal" font-size="28" text-anchor="start" direction="ltr" writing-mode="lr-tb" unicode-bidi="normal" text-decoration="none" transform="matrix(1 0 0 1 1541.7 1530)">Provider</text><text fill="#595959" fill-opacity="1" font-family="Arial,Arial_MSFontService,sans-serif" font-style="normal" font-variant="normal" font-weight="700" font-stretch="normal" font-size="28" text-anchor="start" direction="ltr" writing-mode="lr-tb" unicode-bidi="normal" text-decoration="none" transform="matrix(1 0 0 1 1723.16 1530)">Payer</text><text fill="#595959" fill-opacity="1" font-family="Arial,Arial_MSFontService,sans-serif" font-style="normal" font-variant="normal" font-weight="700" font-stretch="normal" font-size="28" text-anchor="start" direction="ltr" writing-mode="lr-tb" unicode-bidi="normal" text-decoration="none" transform="matrix(1 0 0 1 1859.3 1500)">Researcher</text><g><g><g><path d="M83.2453 103.02C81.8315 104.949 79.855 105.002 77.7756 105 53.4557 104.988 29.1358 104.993 4.81594 104.992 4.23432 104.992 3.64927 105.007 3.0728 104.947 0.838972 104.717-0.169853 103.794 0.0240197 101.555 0.248775 98.9661 0.619364 96.3411 1.33995 93.8516 4.97207 81.3168 12.8196 72.3438 24.79 66.5911 25.2755 67.3648 25.7371 68.0545 26.1505 68.7717 28.055 72.0778 30.33 75.0683 33.4457 77.3347 39.0748 81.4283 45.4984 81.2602 50.793 76.7256 52.3937 75.3548 53.7937 73.6992 55.0668 72.0075 56.2798 70.3947 57.2045 68.5658 58.469 66.483 65.2236 69.3705 70.7945 73.7832 75.2948 79.6114 79.8207 85.4705 82.4029 92.1806 83.6244 99.4191 83.6244 99.4191 84.0997 102.118 83.247 103.017Z" fill="#595959" fill-rule="nonzero" fill-opacity="1" transform="matrix(1.09076 0 0 1 1884.32 1359)"/><path d="M68.3239 28.5285C73.0438 31.8518 74.2036 38.3319 70.7585 43.4035 69.6844 44.9837 68.2724 46.2361 66.3148 46.3459 64.8736 46.4266 64.3349 47.1918 63.7996 48.3121 62.2435 51.5719 60.1744 54.4731 57.5528 56.9832 48.5334 65.6165 35.676 65.9305 26.2689 57.7175 23.5375 55.3327 21.3929 52.4847 19.7133 49.278 19.2672 48.4271 18.8314 47.5709 18.4265 46.7851 13.2245 45.6511 11.0834 43.3675 10.5378 38.4658 9.91497 32.864 11.339 30.2047 16.1772 28.0138 16.4415 25.5552 16.5392 23.0314 17.0231 20.5848 17.5086 18.1331 18.1434 15.6591 19.1231 13.3687 22.7826 4.81251 29.738 0.823531 38.6837 0.113236 41.9297-0.144118 45.2822 0.0549021 48.5043 0.567893 57.5906 2.0125 63.6092 7.31742 66.1827 16.1069 67.3117 19.962 67.5844 24.0677 68.3256 28.5285ZM66.3509 41.228C68.7545 38.0574 68.7254 34.9795 66.2548 33.0836 66.0764 33.4251 65.8893 33.7339 65.7452 34.0633 65.3455 34.9692 64.5991 35.6229 63.719 35.1751 63.0859 34.8525 62.7187 33.9381 62.3361 33.2312 62.168 32.9207 62.2452 32.4711 62.2366 32.0851 62.1697 28.6863 60.6067 25.9652 58.3163 23.6096 57.6557 22.9302 56.8116 22.4292 55.9332 21.7567 57.5391 19.9106 58.8773 18.5312 59.9977 16.9939 60.3459 16.5169 60.3785 15.4429 60.0714 14.9351 59.5035 14 58.5325 14.2814 57.8187 14.9162 56.6624 15.9439 55.566 17.0385 54.4646 18.1263 51.0006 21.5525 47.2329 24.567 42.7601 26.5829 36.9748 29.1907 31.1844 29.4481 25.4231 26.4697 25.0113 26.2569 24.5567 26.1248 24.1861 25.9807 22.2199 27.0959 21.3192 28.7121 21.1098 30.7606 21.0206 31.627 21.1236 32.5604 20.8268 33.3444 20.554 34.0633 19.9655 34.8885 19.3101 35.1545 18.9 35.3209 18.0611 34.5934 17.4983 34.1611 17.1054 33.8591 16.8498 33.377 16.5049 32.9361 14.2265 35.6658 14.4924 39.1297 17.0368 41.4905 17.2633 41.3584 17.5035 41.2143 17.7454 41.077 19.8797 39.8692 20.813 40.1694 21.7532 42.3895 22.0552 43.1016 22.2954 43.8393 22.5836 44.5565 24.2753 48.7736 26.7785 52.4109 30.4226 55.168 34.53 58.2751 39.1006 59.7557 44.3008 58.8413 50.9045 57.6815 55.4459 53.7028 58.6955 48.1148 59.8518 46.1263 60.5673 43.8805 61.4817 41.7513 62.4168 39.5741 63.5509 39.2344 65.5067 40.5606 65.8018 40.7614 66.0712 41.0015 66.3543 41.2246Z" fill="#595959" fill-rule="nonzero" fill-opacity="1" transform="matrix(1.09076 0 0 1 1884.32 1359)"/><path d="M54.5761 33.5743C54.3805 35.3586 53.0543 36.5442 51.5273 36.3006 50.0844 36.0707 49.1476 34.5557 49.3381 32.7577 49.5182 31.0591 50.6489 29.901 52.054 29.9731 53.5776 30.052 54.7751 31.7626 54.5761 33.5743Z" fill="#595959" fill-rule="nonzero" fill-opacity="1" transform="matrix(1.09076 0 0 1 1884.32 1359)"/><path d="M32.9035 33.2861C32.8417 35.0961 31.6459 36.3966 30.1121 36.3246 28.616 36.2525 27.5042 34.8182 27.5728 33.0442 27.6415 31.2753 28.8888 29.8993 30.3591 29.9731 31.8055 30.0452 32.9618 31.5515 32.9035 33.2861Z" fill="#595959" fill-rule="nonzero" fill-opacity="1" transform="matrix(1.09076 0 0 1 1884.32 1359)"/></g></g></g><text fill="#595959" fill-opacity="1" font-family="Arial,Arial_MSFontService,sans-serif" font-style="italic" font-variant="normal" font-weight="700" font-stretch="normal" font-size="28" text-anchor="start" direction="ltr" writing-mode="lr-tb" unicode-bidi="normal" text-decoration="none" transform="matrix(1 0 0 1 2031.29 777)">r</text><text fill="#595959" fill-opacity="1" font-family="Arial,Arial_MSFontService,sans-serif" font-style="italic" font-variant="normal" font-weight="700" font-stretch="normal" font-size="28" text-anchor="start" direction="ltr" writing-mode="lr-tb" unicode-bidi="normal" text-decoration="none" transform="matrix(1 0 0 1 2042.18 777)">eview consent provenance, </text><text fill="#595959" fill-opacity="1" font-family="Arial,Arial_MSFontService,sans-serif" font-style="italic" font-variant="normal" font-weight="700" font-stretch="normal" font-size="28" text-anchor="start" direction="ltr" writing-mode="lr-tb" unicode-bidi="normal" text-decoration="none" transform="matrix(1 0 0 1 2063.65 809)">review disclosure audit</text><text fill="#595959" fill-opacity="1" font-family="Arial,Arial_MSFontService,sans-serif" font-style="italic" font-variant="normal" font-weight="700" font-stretch="normal" font-size="28" text-anchor="start" direction="ltr" writing-mode="lr-tb" unicode-bidi="normal" text-decoration="none" transform="matrix(1 0 0 1 2114.94 841)">initiate </text><text fill="#595959" fill-opacity="1" font-family="Arial,Arial_MSFontService,sans-serif" font-style="italic" font-variant="normal" font-weight="700" font-stretch="normal" font-size="28" text-anchor="start" direction="ltr" writing-mode="lr-tb" unicode-bidi="normal" text-decoration="none" transform="matrix(1 0 0 1 2210.62 841)">consent</text><g clip-path="url(#clip0)"><g clip-path="url(#clip1)"><g clip-path="url(#clip2)"><path d="M124.892 8.33646C124.494 4.77188 122.737 2.00318 119.429 0.738546 117.756 0.101171 115.81 0.0337236 113.982 0.0337236 79.6922-0.00337236 45.402 0.0101171 11.1085 0.0101171 10.6432 0.0101171 10.1778 0 9.71239 0 9.09525 0 8.48148 0.0101171 7.86771 0.0775642 3.37573 0.576673 0.310257 3.88495 0.0438406 8.53881-0.0370959 9.95857 0.0202341 11.3851 0.0202341 12.8082L0.0202341 142.27 0.0202341 273.161C0.0202341 274.581-0.0438406 276.011 0.0708195 277.424 0.408055 281.572 3.37236 284.826 7.38883 285.372 8.90977 285.578 10.4678 285.494 12.0157 285.494L112.111 285.494C122.558 285.494 124.98 283.045 124.98 272.476L124.98 13.0746C124.98 11.493 125.067 9.89787 124.895 8.33646ZM23.3502 17.6644 102.034 17.6644C105.892 17.6644 109.049 20.8209 109.049 24.6789 109.049 28.5369 105.892 31.6934 102.034 31.6934L23.3502 31.6934C19.4922 31.6934 16.3357 28.5369 16.3357 24.6789 16.3357 20.8209 19.4922 17.6644 23.3502 17.6644ZM103.498 265.698C102.445 265.89 101.349 265.88 100.274 265.88 75.1327 265.89 49.9986 265.89 24.861 265.88 23.6335 265.88 22.3756 265.893 21.175 265.661 18.0758 265.057 15.9883 262.366 16.0727 259.28 16.1536 256.431 18.2175 253.847 21.0975 253.281 22.4464 253.018 23.8594 253.089 25.2455 253.089 37.5815 253.079 49.921 253.085 62.2571 253.085L62.2537 253.085C64.5739 253.082 66.8941 253.085 69.2176 253.085 79.3886 253.085 89.5597 253.082 99.7307 253.092 100.473 253.092 101.221 253.082 101.967 253.109 102.614 253.132 103.255 253.18 103.875 253.318 106.971 254.013 108.9 256.781 108.698 259.911 108.509 262.848 106.479 265.172 103.504 265.705ZM103.983 236.861C102.658 237.171 101.231 237.11 99.8487 237.11 74.8764 237.121 49.9008 237.114 24.9318 237.114 23.8493 237.114 22.7533 237.191 21.6977 237.036 18.403 236.561 15.985 233.745 16.0625 230.592 16.1435 227.354 18.5513 224.842 21.9945 224.518 23.222 224.403 24.4631 224.464 25.694 224.464L62.6921 224.464 62.6887 224.464C63.579 224.467 64.466 224.467 65.3563 224.467 76.802 224.467 88.2445 224.464 99.6869 224.467 100.385 224.467 101.086 224.457 101.788 224.467 102.324 224.478 102.857 224.491 103.38 224.562 106.415 224.97 108.465 227.202 108.698 230.18 108.947 233.31 107.045 236.136 103.99 236.854ZM104.503 210.573C102.897 211.042 101.164 211.248 99.4879 211.248 74.8124 211.285 50.1301 211.282 25.4545 211.258 24.0753 211.258 22.6724 211.13 21.3268 210.846 18.0859 210.165 16.0558 207.69 16.0659 204.624 16.076 201.64 18.2984 198.956 21.4111 198.379 21.9271 198.284 22.4565 198.261 22.986 198.247 23.6908 198.227 24.399 198.237 25.1005 198.237 37.595 198.234 50.0862 198.234 62.5808 198.234 75.0754 198.23 87.5666 198.214 100.061 198.254 100.162 198.254 100.27 198.264 100.371 198.268 101.798 198.281 103.268 198.352 104.607 198.784 107.298 199.65 108.819 202.163 108.708 204.968 108.603 207.579 107.069 209.831 104.503 210.583ZM101.005 181.048 101.002 181.048C100.925 181.048 100.854 181.028 100.776 181.025 100.742 181.025 100.709 181.038 100.672 181.038L100.668 181.038C96.2403 181.058 92.4464 177.123 92.4835 172.55 92.5206 168.018 96.4595 164.028 100.78 164.136 100.84 164.136 100.898 164.156 100.958 164.16 101.009 164.16 101.059 164.146 101.113 164.146 105.339 164.257 108.964 168.028 109.069 172.425 109.177 176.937 105.349 181.031 101.005 181.048Z" fill="#595959" fill-rule="nonzero" fill-opacity="1" transform="matrix(1 0 0 1.00292 1787 602.83)"/></g></g></g><text fill="#595959" fill-opacity="1" font-family="Arial,Arial_MSFontService,sans-serif" font-style="normal" font-variant="normal" font-weight="700" font-stretch="normal" font-size="28" text-anchor="start" direction="ltr" writing-mode="lr-tb" unicode-bidi="normal" text-decoration="none" transform="matrix(1 0 0 1 2025.28 1518)">Other Consent </text><text fill="#595959" fill-opacity="1" font-family="Arial,Arial_MSFontService,sans-serif" font-style="normal" font-variant="normal" font-weight="700" font-stretch="normal" font-size="28" text-anchor="start" direction="ltr" writing-mode="lr-tb" unicode-bidi="normal" text-decoration="none" transform="matrix(1 0 0 1 2023.84 1551)">Administration </text><text fill="#595959" fill-opacity="1" font-family="Arial,Arial_MSFontService,sans-serif" font-style="normal" font-variant="normal" font-weight="700" font-stretch="normal" font-size="28" text-anchor="start" direction="ltr" writing-mode="lr-tb" unicode-bidi="normal" text-decoration="none" transform="matrix(1 0 0 1 2063.67 1584)">Services</text><g clip-path="url(#clip3)"><g><g><path d="M71.3266 4.76101C71.0993 2.72526 70.0959 1.14403 68.2065 0.421789 67.2512 0.0577793 66.1399 0.0192598 65.0961 0.0192598 45.5127-0.00192598 25.9294 0.00577793 6.34416 0.00577793 6.07838 0.00577793 5.81259 0 5.54681 0 5.19436 0 4.84383 0.00577793 4.4933 0.0442974 1.9279 0.329342 0.17719 2.21872 0.0250377 4.87657-0.0211857 5.68741 0.0115559 6.50209 0.0115559 7.31486L0.0115559 81.2511 0.0115559 156.004C0.0115559 156.815-0.0250377 157.631 0.0404455 158.438 0.233043 160.807 1.92598 162.666 4.21981 162.978 5.08843 163.095 5.97823 163.047 6.86225 163.047L64.0271 163.047C69.9938 163.047 71.3767 161.649 71.3767 155.613L71.3767 7.46701C71.3767 6.56373 71.4267 5.65274 71.3285 4.76101ZM13.3355 10.0883 58.2723 10.0883C60.4756 10.0883 62.2784 11.891 62.2784 14.0943 62.2784 16.2976 60.4756 18.1003 58.2723 18.1003L13.3355 18.1003C11.1321 18.1003 9.32943 16.2976 9.32943 14.0943 9.32943 11.891 11.1321 10.0883 13.3355 10.0883ZM59.1082 151.742C58.5073 151.852 57.8814 151.846 57.267 151.846 42.9088 151.852 28.5545 151.852 14.1983 151.846 13.4972 151.846 12.7788 151.854 12.0932 151.721 10.3232 151.376 9.13105 149.839 9.1792 148.077 9.22542 146.449 10.4041 144.974 12.0489 144.65 12.8193 144.5 13.6263 144.541 14.4179 144.541 21.4631 144.535 28.5102 144.539 35.5554 144.539L35.5535 144.539C36.8786 144.537 38.2037 144.539 39.5307 144.539 45.3394 144.539 51.1481 144.537 56.9569 144.543 57.3806 144.543 57.8082 144.537 58.2338 144.552 58.6036 144.566 58.9695 144.593 59.3239 144.672 61.0919 145.068 62.1936 146.65 62.078 148.437 61.9702 150.114 60.8108 151.441 59.112 151.746ZM59.3855 135.273C58.6286 135.45 57.8139 135.415 57.0243 135.415 42.7624 135.421 28.4987 135.417 14.2387 135.417 13.6205 135.417 12.9946 135.462 12.3917 135.373 10.51 135.101 9.12912 133.493 9.17342 131.692 9.21965 129.844 10.5948 128.409 12.5612 128.224 13.2623 128.158 13.971 128.193 14.674 128.193L35.8039 128.193 35.802 128.193C36.3104 128.195 36.817 128.195 37.3254 128.195 43.8622 128.195 50.397 128.193 56.9318 128.195 57.3305 128.195 57.7311 128.189 58.1317 128.195 58.438 128.201 58.7423 128.208 59.0408 128.249 60.7742 128.482 61.9452 129.757 62.078 131.457 62.2206 133.245 61.1343 134.859 59.3894 135.269ZM59.6821 120.26C58.7654 120.528 57.7754 120.645 56.8182 120.645 42.7258 120.666 28.6296 120.664 14.5373 120.651 13.7495 120.651 12.9483 120.578 12.1799 120.416 10.329 120.027 9.16957 118.613 9.17535 116.862 9.18113 115.158 10.4503 113.625 12.228 113.296 12.5227 113.242 12.8251 113.228 13.1275 113.22 13.53 113.209 13.9344 113.215 14.335 113.215 21.4708 113.213 28.6046 113.213 35.7403 113.213 42.8761 113.211 50.0099 113.201 57.1456 113.224 57.2034 113.224 57.265 113.23 57.3228 113.232 58.1375 113.24 58.9772 113.28 59.7418 113.527 61.2788 114.022 62.1474 115.456 62.0838 117.059 62.0241 118.55 61.1478 119.836 59.6821 120.266ZM57.6849 103.398 57.683 103.398C57.6387 103.398 57.5982 103.386 57.5539 103.384 57.5347 103.384 57.5154 103.392 57.4942 103.392L57.4923 103.392C54.9635 103.404 52.7968 101.156 52.818 98.5445 52.8391 95.956 55.0887 93.6775 57.5559 93.7392 57.5905 93.7392 57.6233 93.7507 57.6579 93.7527 57.6868 93.7527 57.7157 93.7449 57.7465 93.7449 60.1598 93.8085 62.2302 95.9617 62.2899 98.4732 62.3515 101.05 60.1656 103.388 57.6849 103.398Z" fill="#595959" fill-rule="nonzero" fill-opacity="1" transform="matrix(1.00857 0 0 1 2075 1308.47)"/></g></g></g><text fill="#595959" fill-opacity="1" font-family="Arial,Arial_MSFontService,sans-serif" font-style="italic" font-variant="normal" font-weight="700" font-stretch="normal" font-size="28" text-anchor="start" direction="ltr" writing-mode="lr-tb" unicode-bidi="normal" text-decoration="none" transform="matrix(1 0 0 1 589.631 988)">request patient </text><text fill="#595959" fill-opacity="1" font-family="Arial,Arial_MSFontService,sans-serif" font-style="italic" font-variant="normal" font-weight="700" font-stretch="normal" font-size="28" text-anchor="start" direction="ltr" writing-mode="lr-tb" unicode-bidi="normal" text-decoration="none" transform="matrix(1 0 0 1 659.825 1020)">data</text><text fill="#595959" fill-opacity="1" font-family="Arial,Arial_MSFontService,sans-serif" font-style="italic" font-variant="normal" font-weight="700" font-stretch="normal" font-size="28" text-anchor="start" direction="ltr" writing-mode="lr-tb" unicode-bidi="normal" text-decoration="none" transform="matrix(1 0 0 1 622.274 1103)">patient data</text><path d="M2.2917 22.9166 2.29199 213.089-2.29134 213.089-2.29163 22.9166ZM-9.16662 27.5 0 0 9.16671 27.5ZM9.16699 208.506 0.000360892 236.006-9.16635 208.506Z" fill="#595959" fill-rule="nonzero" fill-opacity="1" transform="matrix(1 0 0 -1 1869.5 1257.51)"/><text fill="#595959" fill-opacity="1" font-family="Arial,Arial_MSFontService,sans-serif" font-style="italic" font-variant="normal" font-weight="700" font-stretch="normal" font-size="28" text-anchor="start" direction="ltr" writing-mode="lr-tb" unicode-bidi="normal" text-decoration="none" transform="matrix(1 0 0 1 1883.63 1135)">r</text><text fill="#595959" fill-opacity="1" font-family="Arial,Arial_MSFontService,sans-serif" font-style="italic" font-variant="normal" font-weight="700" font-stretch="normal" font-size="28" text-anchor="start" direction="ltr" writing-mode="lr-tb" unicode-bidi="normal" text-decoration="none" transform="matrix(1 0 0 1 1894.52 1135)">equest consent </text><text fill="#595959" fill-opacity="1" font-family="Arial,Arial_MSFontService,sans-serif" font-style="italic" font-variant="normal" font-weight="700" font-stretch="normal" font-size="28" text-anchor="start" direction="ltr" writing-mode="lr-tb" unicode-bidi="normal" text-decoration="none" transform="matrix(1 0 0 1 1883.63 1167)">propagate consent events</text><g><g><g><path d="M116.458 51.9584 105.708 51.9584 105.708 41.2084 116.458 41.2084 116.458 51.9584ZM116.458 80.6251 105.708 80.6251 105.708 69.8751 116.458 69.8751 116.458 80.6251ZM116.458 109.292 105.708 109.292 105.708 98.5418 116.458 98.5418 116.458 109.292ZM116.458 137.959 105.708 137.959 105.708 127.208 116.458 127.208 116.458 137.959ZM91.3751 51.9584 80.6251 51.9584 80.6251 41.2084 91.3751 41.2084 91.3751 51.9584ZM91.3751 80.6251 80.6251 80.6251 80.6251 69.8751 91.3751 69.8751 91.3751 80.6251ZM91.3751 109.292 80.6251 109.292 80.6251 98.5418 91.3751 98.5418 91.3751 109.292ZM91.3751 148.709 80.6251 148.709 80.6251 127.208 91.3751 127.208 91.3751 148.709ZM66.2918 51.9584 55.5417 51.9584 55.5417 41.2084 66.2918 41.2084 66.2918 51.9584ZM66.2918 80.6251 55.5417 80.6251 55.5417 69.8751 66.2918 69.8751 66.2918 80.6251ZM66.2918 109.292 55.5417 109.292 55.5417 98.5418 66.2918 98.5418 66.2918 109.292ZM66.2918 137.959 55.5417 137.959 55.5417 127.208 66.2918 127.208 66.2918 137.959ZM129 148.709 129 28.6667 123.625 28.6667 123.625 17.9167 118.25 17.9167 118.25 10.75 53.7501 10.75 53.7501 17.9167 48.3751 17.9167 48.3751 28.6667 43.0001 28.6667 43.0001 148.709 35.8334 148.709 35.8334 161.25 136.167 161.25 136.167 148.709 129 148.709Z" fill="#595959" fill-rule="nonzero" fill-opacity="1" transform="matrix(1 0 0 1.00581 1680 1317)"/></g></g></g><text fill="#595959" fill-opacity="1" font-family="Arial,Arial_MSFontService,sans-serif" font-style="normal" font-variant="normal" font-weight="700" font-stretch="normal" font-size="37" text-anchor="start" direction="ltr" writing-mode="lr-tb" unicode-bidi="normal" text-decoration="none" transform="matrix(1 0 0 1 858.744 1140)">Authorization</text><text fill="#595959" fill-opacity="1" font-family="Arial,Arial_MSFontService,sans-serif" font-style="normal" font-variant="normal" font-weight="700" font-stretch="normal" font-size="37" text-anchor="start" direction="ltr" writing-mode="lr-tb" unicode-bidi="normal" text-decoration="none" transform="matrix(1 0 0 1 910.879 1184)">Service</text><text fill="#595959" fill-opacity="1" font-family="Arial,Arial_MSFontService,sans-serif" font-style="italic" font-variant="normal" font-weight="700" font-stretch="normal" font-size="28" text-anchor="start" direction="ltr" writing-mode="lr-tb" unicode-bidi="normal" text-decoration="none" transform="matrix(1 0 0 1 275.166 667)">user identity</text><rect x="1157" y="580" width="1327" height="318" fill="#3FAE49" fill-opacity="0.215686"/><rect x="1512" y="899" width="741" height="366" fill="#3FAE49" fill-opacity="0.215686"/></g></g></svg>